<?xml version="1.0" encoding="utf-8"?>
<!-- Generator: Adobe Illustrator 16.0.0, SVG Export Plug-In . SVG Version: 6.00 Build 0)  -->
<!DOCTYPE svg PUBLIC "-//W3C//DTD SVG 1.1//EN" "http://www.w3.org/Graphics/SVG/1.1/DTD/svg11.dtd">
<svg version="1.1" id="Layer_1" xmlns="http://www.w3.org/2000/svg" xmlns:xlink="http://www.w3.org/1999/xlink" x="0px" y="0px"
	 width="640px" height="200px" viewBox="0 0 640 200" enable-background="new 0 0 640 200" xml:space="preserve">
<g>
	<linearGradient id="SVGID_1_" gradientUnits="userSpaceOnUse" x1="79.5044" y1="153.9443" x2="165.7847" y2="61.4201">
		<stop  offset="0" style="stop-color:#8DC63F"/>
		<stop  offset="1" style="stop-color:#00AEEF"/>
	</linearGradient>
	<path fill="url(#SVGID_1_)" d="M120.199,131.063l0.028,43.016l-19.012,0.109V60.438h44.453c12.551,0,22.383,3.242,29.492,9.727
		s10.664,15.014,10.664,25.586c0,10.678-3.555,19.232-10.664,25.664c-7.109,6.433-16.941,9.648-29.492,9.648H120.199z
		 M120.199,115.829h25.469c7.031,0,12.317-1.875,15.859-5.625c3.541-3.75,5.313-8.516,5.313-14.297s-1.771-10.598-5.313-14.453
		c-3.542-3.854-8.828-5.781-15.859-5.781h-25.469V115.829z"/>
</g>
<g>
	<linearGradient id="SVGID_2_" gradientUnits="userSpaceOnUse" x1="41.3325" y1="176.5352" x2="144.0926" y2="29.7785">
		<stop  offset="0" style="stop-color:#F7941E"/>
		<stop  offset="1" style="stop-color:#F15A29"/>
	</linearGradient>
	<path fill="url(#SVGID_2_)" d="M142.783,119.214c-1.533-4.24-3.903-8.144-7.11-11.709c-2.925-3.137-6.363-5.881-10.319-8.234
		c-3.957-2.353-8.073-4.455-12.351-6.309c-4.705-2.067-9.571-4.01-14.597-5.828c-5.026-1.818-10.143-3.974-15.345-6.47
		c-5.847-2.78-10.303-6.326-13.367-10.64c-3.066-4.313-4.598-9.748-4.598-16.308c0-6.272,2.387-11.584,7.164-15.933
		c4.775-4.348,10.55-6.523,17.323-6.523c6.416,0,11.833,1.229,16.254,3.689c4.419,2.459,8.162,5.757,11.228,9.891
		c3.137,4.277,5.685,9.054,7.646,14.329c0,0,0.324,0.828,0.453,1.235h13.242l-0.595-35.026h-8.555l-4.385,7.271
		c-4.563-2.851-9.607-5.347-15.131-7.485c-5.525-2.139-11.781-3.208-18.768-3.208c-6.132,0-12.013,1.053-17.644,3.155
		c-5.633,2.102-10.517,5.005-14.649,8.711c-4.35,3.92-7.699,8.375-10.053,13.363c-2.352,4.989-3.528,10.369-3.528,16.142
		c0,10.048,2.369,18.192,7.111,24.428c4.74,6.235,11.388,11.278,19.942,15.126c4.348,1.988,9.518,4.102,15.506,6.337
		s11.298,4.277,15.934,6.122c6.771,2.713,11.869,6.693,15.291,11.939s5.133,10.904,5.133,16.971c0,4.141-0.553,7.8-1.657,10.977
		c-0.587,1.688-1.253,3.082-2.171,4.536c0.012,0.173,0.027,12.733,0.027,14.202c0,0.156-18.984,0.116-18.984,0
		c0-0.422-0.03-3.176,0-3.387c-1.849,0.228-3.695,0.336-5.765,0.336c-6.561,0-12.316-1.247-17.271-3.743
		c-4.955-2.495-9.286-5.845-12.992-10.052c-3.922-4.491-7.076-9.32-9.464-14.49c-2.389-5.167-4.475-10.96-6.256-17.376h-8.661
		l1.497,51.97h8.555l4.598-7.807c4.92,2.994,10.764,5.545,17.537,7.646c6.772,2.102,13.544,3.154,20.318,3.154
		c14.685,0,26.981-4.348,36.892-13.046c9.908-8.696,14.864-19.746,14.864-33.149C145.083,128.394,144.315,123.456,142.783,119.214z"
		/>
</g>
<g>
	<linearGradient id="SVGID_3_" gradientUnits="userSpaceOnUse" x1="178.3779" y1="151.0049" x2="211.9212" y2="106.4915">
		<stop  offset="0" style="stop-color:#8DC63F"/>
		<stop  offset="1" style="stop-color:#00AEEF"/>
	</linearGradient>
	<path fill="url(#SVGID_3_)" d="M213.756,118.467c-0.652-0.142-1.31-0.248-1.976-0.318s-1.324-0.106-1.975-0.106
		c-2.237-0.057-4.234,0.382-5.99,1.317c-1.756,0.934-3.271,2.322-4.545,4.162L193.748,155H183.68l7.944-45.964l9.558-0.042
		l-1.02,5.225c0.68-0.906,1.402-1.742,2.167-2.506c0.765-0.766,1.6-1.416,2.506-1.955c0.906-0.537,1.869-0.955,2.889-1.253
		c1.02-0.297,2.124-0.431,3.313-0.403c0.651,0,1.296,0.063,1.933,0.191c0.638,0.127,1.281,0.275,1.933,0.445L213.756,118.467z"/>
	<linearGradient id="SVGID_4_" gradientUnits="userSpaceOnUse" x1="220.3281" y1="151.6729" x2="249.9072" y2="112.4201">
		<stop  offset="0" style="stop-color:#8DC63F"/>
		<stop  offset="1" style="stop-color:#00AEEF"/>
	</linearGradient>
	<path fill="url(#SVGID_4_)" d="M214.436,131.891c0.368-3.172,1.182-6.209,2.442-9.112c1.26-2.902,2.91-5.444,4.949-7.625
		s4.453-3.908,7.243-5.183c2.789-1.274,5.897-1.869,9.324-1.784c3.256,0.085,6.061,0.786,8.411,2.103
		c2.351,1.317,4.248,3.045,5.692,5.183c1.444,2.139,2.449,4.595,3.016,7.37c0.566,2.776,0.694,5.65,0.383,8.624l-0.085,0.935
		c-0.396,3.172-1.231,6.195-2.507,9.069c-1.273,2.875-2.931,5.389-4.97,7.54c-2.039,2.152-4.454,3.852-7.243,5.098
		c-2.79,1.246-5.883,1.827-9.282,1.742c-3.229-0.085-6.018-0.771-8.369-2.061c-2.351-1.288-4.248-2.994-5.692-5.119
		c-1.444-2.123-2.45-4.559-3.016-7.307c-0.567-2.746-0.694-5.607-0.382-8.58L214.436,131.891z M224.418,132.783
		c-0.17,1.557-0.22,3.193-0.149,4.906s0.383,3.299,0.935,4.758c0.553,1.459,1.395,2.676,2.528,3.653
		c1.132,0.977,2.69,1.493,4.673,1.55c2.096,0.086,3.922-0.332,5.48-1.253c1.557-0.92,2.881-2.116,3.972-3.589
		s1.947-3.129,2.57-4.971c0.623-1.841,1.062-3.653,1.317-5.438l0.084-0.893c0.113-1.02,0.185-2.096,0.213-3.229
		c0.028-1.132-0.036-2.251-0.191-3.355s-0.418-2.159-0.785-3.165c-0.369-1.005-0.871-1.897-1.509-2.676
		c-0.637-0.778-1.423-1.402-2.357-1.869c-0.935-0.468-2.067-0.729-3.398-0.786c-2.124-0.057-3.965,0.383-5.522,1.316
		c-1.558,0.936-2.875,2.152-3.951,3.654c-1.077,1.501-1.926,3.179-2.549,5.033c-0.623,1.855-1.048,3.675-1.274,5.459
		L224.418,132.783z"/>
	<linearGradient id="SVGID_5_" gradientUnits="userSpaceOnUse" x1="256.7671" y1="149.3818" x2="299.9494" y2="92.077">
		<stop  offset="0" style="stop-color:#8DC63F"/>
		<stop  offset="1" style="stop-color:#00AEEF"/>
	</linearGradient>
	<path fill="url(#SVGID_5_)" d="M264.223,155l6.67-38.317h-6.84l1.359-7.646h6.797l0.596-4.333c0.311-2.436,0.948-4.645,1.911-6.627
		c0.963-1.982,2.202-3.675,3.717-5.076c1.515-1.402,3.299-2.471,5.353-3.208c2.054-0.736,4.34-1.09,6.861-1.062
		c1.02,0.028,2.024,0.121,3.016,0.276s1.982,0.347,2.974,0.573l-1.104,8.071c-0.623-0.142-1.246-0.248-1.869-0.318
		s-1.261-0.106-1.912-0.106c-2.407-0.028-4.375,0.623-5.904,1.954c-1.529,1.332-2.506,3.172-2.932,5.522l-0.637,4.333h9.091
		l-1.359,7.646h-9.048L274.291,155H264.223z"/>
	<linearGradient id="SVGID_6_" gradientUnits="userSpaceOnUse" x1="298.5068" y1="151.7354" x2="327.7226" y2="112.9647">
		<stop  offset="0" style="stop-color:#8DC63F"/>
		<stop  offset="1" style="stop-color:#00AEEF"/>
	</linearGradient>
	<path fill="url(#SVGID_6_)" d="M310.313,155.85c-3.144-0.057-5.912-0.68-8.305-1.869c-2.394-1.189-4.369-2.782-5.927-4.779
		c-1.558-1.996-2.669-4.326-3.334-6.988c-0.666-2.661-0.871-5.479-0.616-8.453l0.212-1.742c0.34-3.086,1.126-6.074,2.358-8.963
		c1.231-2.889,2.853-5.451,4.864-7.689c2.01-2.236,4.382-4.014,7.115-5.331c2.732-1.316,5.784-1.933,9.154-1.848
		c3.229,0.085,5.933,0.772,8.113,2.061s3.908,2.987,5.184,5.098c1.273,2.11,2.109,4.51,2.506,7.2
		c0.396,2.691,0.41,5.466,0.043,8.326l-0.68,4.418h-28.887c-0.143,1.558-0.071,3.066,0.212,4.524s0.793,2.755,1.529,3.887
		c0.736,1.133,1.713,2.046,2.931,2.74s2.69,1.069,4.418,1.126c2.436,0.084,4.652-0.404,6.648-1.466
		c1.997-1.063,3.803-2.457,5.416-4.185l5.056,5.353c-1.02,1.473-2.202,2.755-3.547,3.845c-1.346,1.09-2.797,1.99-4.354,2.697
		c-1.558,0.708-3.2,1.232-4.928,1.572S312.041,155.877,310.313,155.85z M315.241,116.428c-1.699-0.057-3.193,0.24-4.481,0.893
		c-1.289,0.651-2.429,1.515-3.42,2.591c-0.991,1.077-1.834,2.302-2.527,3.675c-0.694,1.373-1.296,2.754-1.806,4.142l19.073,0.085
		l0.213-0.935c0.198-1.302,0.219-2.57,0.063-3.802c-0.155-1.232-0.517-2.33-1.083-3.293c-0.566-0.962-1.353-1.748-2.357-2.357
		C317.91,116.817,316.686,116.484,315.241,116.428z"/>
	<linearGradient id="SVGID_7_" gradientUnits="userSpaceOnUse" x1="341.8486" y1="152.0684" x2="371.6644" y2="112.5015">
		<stop  offset="0" style="stop-color:#8DC63F"/>
		<stop  offset="1" style="stop-color:#00AEEF"/>
	</linearGradient>
	<path fill="url(#SVGID_7_)" d="M363.159,142.256c0.198-1.133,0.049-2.074-0.446-2.825c-0.495-0.75-1.154-1.359-1.975-1.826
		c-0.822-0.468-1.735-0.835-2.74-1.104c-1.006-0.27-1.934-0.517-2.783-0.744c-1.699-0.424-3.427-0.969-5.182-1.635
		c-1.757-0.666-3.328-1.522-4.716-2.57c-1.388-1.047-2.507-2.309-3.356-3.781c-0.85-1.472-1.231-3.256-1.146-5.352
		c0.085-2.379,0.708-4.461,1.869-6.245s2.627-3.278,4.396-4.481s3.738-2.096,5.905-2.677c2.166-0.58,4.312-0.856,6.436-0.828
		c2.237,0.028,4.354,0.368,6.351,1.02c1.997,0.651,3.745,1.593,5.246,2.825c1.501,1.231,2.69,2.754,3.568,4.566
		s1.303,3.908,1.275,6.287l-9.983-0.043c0.057-2.123-0.524-3.787-1.741-4.991c-1.219-1.203-2.889-1.833-5.014-1.89
		c-0.963,0-1.918,0.12-2.867,0.36c-0.949,0.241-1.819,0.609-2.612,1.104c-0.793,0.496-1.466,1.119-2.018,1.869
		c-0.553,0.751-0.899,1.636-1.041,2.655c-0.17,1.077-0.007,1.954,0.488,2.634s1.147,1.232,1.954,1.656
		c0.808,0.426,1.692,0.758,2.655,0.999s1.827,0.46,2.591,0.658c1.813,0.481,3.618,1.048,5.417,1.699
		c1.798,0.651,3.405,1.508,4.821,2.57c1.416,1.062,2.549,2.357,3.398,3.887s1.232,3.398,1.146,5.607
		c-0.113,2.492-0.778,4.646-1.996,6.457c-1.218,1.813-2.755,3.3-4.609,4.46c-1.854,1.162-3.908,2.012-6.159,2.549
		c-2.252,0.538-4.481,0.779-6.69,0.723c-2.295-0.028-4.489-0.39-6.585-1.083c-2.096-0.694-3.944-1.692-5.544-2.995
		s-2.874-2.896-3.823-4.779c-0.949-1.883-1.409-4.057-1.38-6.521l9.728,0.042c0.057,2.465,0.793,4.334,2.209,5.607
		c1.416,1.275,3.356,1.927,5.819,1.955c0.963,0,1.947-0.1,2.953-0.298c1.005-0.198,1.939-0.524,2.804-0.978
		c0.863-0.452,1.6-1.055,2.209-1.805C362.6,144.246,362.989,143.332,363.159,142.256z"/>
	<linearGradient id="SVGID_8_" gradientUnits="userSpaceOnUse" x1="385.8174" y1="152.0684" x2="415.6331" y2="112.5015">
		<stop  offset="0" style="stop-color:#8DC63F"/>
		<stop  offset="1" style="stop-color:#00AEEF"/>
	</linearGradient>
	<path fill="url(#SVGID_8_)" d="M407.127,142.256c0.198-1.133,0.049-2.074-0.446-2.825c-0.495-0.75-1.154-1.359-1.975-1.826
		c-0.822-0.468-1.735-0.835-2.74-1.104c-1.006-0.27-1.934-0.517-2.783-0.744c-1.699-0.424-3.427-0.969-5.182-1.635
		c-1.757-0.666-3.328-1.522-4.716-2.57c-1.388-1.047-2.507-2.309-3.356-3.781c-0.85-1.472-1.231-3.256-1.146-5.352
		c0.085-2.379,0.708-4.461,1.869-6.245s2.627-3.278,4.396-4.481s3.738-2.096,5.905-2.677c2.166-0.58,4.312-0.856,6.436-0.828
		c2.237,0.028,4.354,0.368,6.351,1.02c1.997,0.651,3.745,1.593,5.246,2.825c1.501,1.231,2.69,2.754,3.568,4.566
		s1.303,3.908,1.275,6.287l-9.983-0.043c0.057-2.123-0.524-3.787-1.741-4.991c-1.219-1.203-2.889-1.833-5.014-1.89
		c-0.963,0-1.918,0.12-2.867,0.36c-0.949,0.241-1.819,0.609-2.612,1.104c-0.793,0.496-1.466,1.119-2.018,1.869
		c-0.553,0.751-0.899,1.636-1.041,2.655c-0.17,1.077-0.007,1.954,0.488,2.634s1.147,1.232,1.954,1.656
		c0.808,0.426,1.692,0.758,2.655,0.999s1.827,0.46,2.591,0.658c1.813,0.481,3.618,1.048,5.417,1.699
		c1.798,0.651,3.405,1.508,4.821,2.57c1.416,1.062,2.549,2.357,3.398,3.887s1.232,3.398,1.146,5.607
		c-0.113,2.492-0.778,4.646-1.996,6.457c-1.218,1.813-2.755,3.3-4.609,4.46c-1.854,1.162-3.908,2.012-6.159,2.549
		c-2.252,0.538-4.481,0.779-6.69,0.723c-2.295-0.028-4.489-0.39-6.585-1.083c-2.096-0.694-3.944-1.692-5.544-2.995
		s-2.874-2.896-3.823-4.779c-0.949-1.883-1.409-4.057-1.38-6.521l9.728,0.042c0.057,2.465,0.793,4.334,2.209,5.607
		c1.416,1.275,3.356,1.927,5.819,1.955c0.963,0,1.947-0.1,2.953-0.298c1.005-0.198,1.939-0.524,2.804-0.978
		c0.863-0.452,1.6-1.055,2.209-1.805C406.567,144.246,406.957,143.332,407.127,142.256z"/>
	<linearGradient id="SVGID_9_" gradientUnits="userSpaceOnUse" x1="416.1455" y1="148.8623" x2="452.8975" y2="100.0907">
		<stop  offset="0" style="stop-color:#8DC63F"/>
		<stop  offset="1" style="stop-color:#00AEEF"/>
	</linearGradient>
	<path fill="url(#SVGID_9_)" d="M434.357,155h-10.068l7.986-45.964h10.068L434.357,155z M433.721,97.269
		c0-0.821,0.141-1.579,0.424-2.273c0.283-0.693,0.673-1.295,1.169-1.805c0.495-0.51,1.09-0.906,1.784-1.189
		c0.693-0.283,1.451-0.439,2.272-0.467c0.793-0.028,1.536,0.085,2.23,0.34c0.693,0.255,1.296,0.623,1.806,1.104
		c0.51,0.482,0.92,1.055,1.231,1.721s0.468,1.409,0.468,2.23c0,0.822-0.143,1.572-0.426,2.251s-0.68,1.268-1.189,1.763
		c-0.51,0.496-1.111,0.886-1.805,1.168c-0.694,0.283-1.438,0.439-2.23,0.468s-1.536-0.085-2.23-0.34s-1.295-0.616-1.805-1.083
		c-0.51-0.468-0.921-1.026-1.232-1.678C433.876,98.827,433.721,98.091,433.721,97.269z"/>
	<linearGradient id="SVGID_10_" gradientUnits="userSpaceOnUse" x1="453.7158" y1="151.6729" x2="483.2949" y2="112.4201">
		<stop  offset="0" style="stop-color:#8DC63F"/>
		<stop  offset="1" style="stop-color:#00AEEF"/>
	</linearGradient>
	<path fill="url(#SVGID_10_)" d="M447.823,131.891c0.368-3.172,1.183-6.209,2.442-9.112c1.26-2.902,2.91-5.444,4.949-7.625
		s4.453-3.908,7.243-5.183c2.789-1.274,5.897-1.869,9.324-1.784c3.257,0.085,6.061,0.786,8.411,2.103
		c2.351,1.317,4.248,3.045,5.692,5.183c1.444,2.139,2.449,4.595,3.016,7.37c0.566,2.776,0.694,5.65,0.383,8.624l-0.085,0.935
		c-0.396,3.172-1.231,6.195-2.507,9.069c-1.273,2.875-2.931,5.389-4.97,7.54c-2.039,2.152-4.454,3.852-7.243,5.098
		s-5.883,1.827-9.281,1.742c-3.229-0.085-6.019-0.771-8.369-2.061c-2.351-1.288-4.248-2.994-5.692-5.119
		c-1.444-2.123-2.45-4.559-3.017-7.307c-0.566-2.746-0.693-5.607-0.382-8.58L447.823,131.891z M457.806,132.783
		c-0.17,1.557-0.219,3.193-0.148,4.906s0.383,3.299,0.935,4.758c0.553,1.459,1.395,2.676,2.528,3.653
		c1.132,0.977,2.689,1.493,4.672,1.55c2.096,0.086,3.923-0.332,5.48-1.253c1.558-0.92,2.882-2.116,3.972-3.589
		s1.947-3.129,2.57-4.971c0.623-1.841,1.062-3.653,1.317-5.438l0.084-0.893c0.113-1.02,0.185-2.096,0.213-3.229
		c0.028-1.132-0.036-2.251-0.191-3.355s-0.418-2.159-0.785-3.165c-0.369-1.005-0.871-1.897-1.509-2.676
		c-0.637-0.778-1.423-1.402-2.357-1.869c-0.935-0.468-2.067-0.729-3.398-0.786c-2.124-0.057-3.965,0.383-5.522,1.316
		c-1.558,0.936-2.875,2.152-3.951,3.654c-1.076,1.501-1.926,3.179-2.549,5.033c-0.623,1.855-1.048,3.675-1.273,5.459
		L457.806,132.783z"/>
	<linearGradient id="SVGID_11_" gradientUnits="userSpaceOnUse" x1="497.2168" y1="157.4561" x2="532.1565" y2="111.0895">
		<stop  offset="0" style="stop-color:#8DC63F"/>
		<stop  offset="1" style="stop-color:#00AEEF"/>
	</linearGradient>
	<path fill="url(#SVGID_11_)" d="M511.373,108.994l-1.02,5.395c1.813-1.954,3.852-3.49,6.117-4.609
		c2.266-1.118,4.772-1.649,7.52-1.593c2.492,0.058,4.552,0.56,6.181,1.508c1.629,0.949,2.903,2.209,3.823,3.781
		c0.92,1.571,1.515,3.384,1.784,5.438s0.29,4.185,0.063,6.394L530.872,155h-10.067l5.012-29.821
		c0.142-1.218,0.156-2.343,0.043-3.377s-0.39-1.933-0.828-2.698c-0.439-0.764-1.084-1.365-1.934-1.805s-1.939-0.673-3.271-0.701
		c-2.152-0.027-4.057,0.496-5.714,1.572c-1.656,1.076-3.108,2.436-4.354,4.078L504.024,155h-10.067l7.943-45.964L511.373,108.994z"
		/>
	<linearGradient id="SVGID_12_" gradientUnits="userSpaceOnUse" x1="549.4033" y1="154.6709" x2="580.1784" y2="113.831">
		<stop  offset="0" style="stop-color:#8DC63F"/>
		<stop  offset="1" style="stop-color:#00AEEF"/>
	</linearGradient>
	<path fill="url(#SVGID_12_)" d="M568.638,155c-0.227-0.736-0.361-1.451-0.403-2.146c-0.043-0.693-0.05-1.408-0.021-2.146
		c-1.699,1.587-3.575,2.854-5.629,3.803c-2.054,0.948-4.269,1.395-6.647,1.338c-1.927-0.028-3.732-0.368-5.417-1.02
		s-3.15-1.557-4.396-2.719c-1.246-1.161-2.209-2.556-2.889-4.185c-0.68-1.628-0.978-3.447-0.892-5.458
		c0.141-2.975,0.905-5.452,2.293-7.435c1.388-1.981,3.137-3.583,5.247-4.8c2.109-1.218,4.453-2.082,7.03-2.592
		s5.141-0.765,7.689-0.765l6.541,0.085l0.596-3.144c0.17-1.104,0.17-2.131,0-3.08c-0.17-0.948-0.51-1.77-1.02-2.464
		c-0.51-0.693-1.184-1.238-2.019-1.635s-1.848-0.609-3.037-0.638c-1.02-0.028-2.011,0.093-2.974,0.361s-1.826,0.665-2.592,1.189
		c-0.764,0.524-1.423,1.183-1.975,1.976c-0.553,0.793-0.928,1.699-1.126,2.719l-10.067,0.084c0.17-2.406,0.885-4.51,2.145-6.308
		s2.839-3.285,4.736-4.461c1.897-1.175,3.979-2.039,6.245-2.591c2.266-0.553,4.475-0.814,6.627-0.786
		c2.351,0.058,4.51,0.446,6.479,1.168c1.968,0.723,3.639,1.757,5.013,3.102c1.373,1.345,2.4,2.987,3.08,4.928
		s0.892,4.142,0.637,6.605l-3.355,20.433c-0.256,1.615-0.426,3.258-0.51,4.928c-0.086,1.672,0.127,3.3,0.637,4.886L578.62,155
		H568.638z M558.272,147.608c2.124,0.058,4.092-0.432,5.904-1.466c1.813-1.033,3.356-2.371,4.631-4.014l1.572-8.709l-4.801-0.043
		c-1.359,0-2.762,0.121-4.205,0.361c-1.445,0.241-2.776,0.666-3.994,1.274c-1.218,0.609-2.266,1.431-3.143,2.464
		c-0.879,1.034-1.417,2.344-1.615,3.93c-0.227,1.897,0.191,3.392,1.254,4.481C554.938,146.979,556.403,147.552,558.272,147.608z"/>
	<linearGradient id="SVGID_13_" gradientUnits="userSpaceOnUse" x1="579.3252" y1="148.3291" x2="618.4411" y2="96.4205">
		<stop  offset="0" style="stop-color:#8DC63F"/>
		<stop  offset="1" style="stop-color:#00AEEF"/>
	</linearGradient>
	<path fill="url(#SVGID_13_)" d="M598.246,155h-10.068l11.343-65.25h10.067L598.246,155z"/>
</g>
</svg>
